# xmcd
#
# Track frame offsets:
#	150
#	20992
#	37940
#	51560
#	67810
#	83772
#	97512
#	108890
#	126355
#	136565
#	151357
#	165332
#
# Disc length: 2441 seconds
#
# Revision: 2
# Processed by: cddbd v1.4b42PL0 Copyright (c) Steve Scherf et al.
# Submitted via: EZCDDA 4.3.2
#
DISCID=8909870c
DTITLE=Soledad - Yo si quiero a mi país
DYEAR=1900
DGENRE=
TTITLE0=Yo Si Quiero A Mi País
TTITLE1=El Bahiano
TTITLE2=Como Será
TTITLE3=Mi Consejo
TTITLE4=Luna Mia
TTITLE5=Mi Bien
TTITLE6=Amarraditos
TTITLE7=Corazón Americano
TTITLE8=Un Amigo, Una Flor, Una Estrella
TTITLE9=De La Mano
TTITLE10=El Humahuaqueñio
TTITLE11=Popurri De Candombes
EXTD=
EXTT0=
EXTT1=
EXTT2=
EXTT3=
EXTT4=
EXTT5=
EXTT6=
EXTT7=
EXTT8=
EXTT9=
EXTT10=
EXTT11=
PLAYORDER=
